<?xml version="1.0" encoding="UTF-8"?>
<svg version="1.1" xmlns="http://www.w3.org/2000/svg" width="500" height="500">
<path d="M0 0 C165 0 330 0 500 0 C500 165 500 330 500 500 C335 500 170 500 0 500 C0 335 0 170 0 0 Z " fill="#FEFEFE" transform="translate(0,0)"/>
<path d="M0 0 C3.88690598 1.99898022 6.39363397 4.9540594 8 9 C8.23974502 13.46724889 7.53895094 17.09533235 5.25 20.9375 C1.71474659 24.17814896 -0.78395611 24.93599769 -5.5625 25.1875 C-9 25 -9 25 -11.02148438 24.32324219 C-13.03105131 23.76677146 -13.03105131 23.76677146 -14.58398438 25.03222656 C-15.08220703 25.56299805 -15.58042969 26.09376953 -16.09375 26.640625 C-16.64933594 27.21683594 -17.20492187 27.79304688 -17.77734375 28.38671875 C-18.34582031 29.00160156 -18.91429687 29.61648437 -19.5 30.25 C-20.63317197 31.44484119 -21.76853152 32.63761216 -22.90625 33.828125 C-23.43734375 34.38564453 -23.9684375 34.94316406 -24.515625 35.51757812 C-26.21503578 37.21475283 -28.0110841 38.65455689 -30 40 C-29.46956398 44.40906595 -29.46956398 44.40906595 -28.484375 48.7265625 C-26.39418181 58.53698538 -27.19949995 69.18944369 -32 78 C-32.33 78.66 -32.66 79.32 -33 80 C-31.89718873 81.27200971 -30.79269231 82.54255853 -29.6875 83.8125 C-29.07261719 84.52019531 -28.45773437 85.22789062 -27.82421875 85.95703125 C-27.22222656 86.63121094 -26.62023437 87.30539063 -26 88 C-25.51789063 88.58394531 -25.03578125 89.16789062 -24.5390625 89.76953125 C-22.45138148 91.43861633 -21.3034496 91.15511896 -18.6875 90.875 C-15.09175804 90.73422054 -13.28565065 91.05474861 -10.5 93.375 C-7.83329565 96.17503957 -7.11440995 96.99319243 -6.6875 100.75 C-7.07994323 104.83140958 -8.43348234 106.84684973 -11 110 C-14.73337473 111.24445824 -18.12790345 111.64032725 -22 111 C-25 109.0625 -25 109.0625 -27 106 C-27.56450552 102.19286977 -27.74465448 98.48930896 -26 95 C-26.66 95 -27.32 95 -28 95 C-29.82358373 93.02819395 -31.47002794 90.94381973 -33.1484375 88.84765625 C-35.16590214 86.83444786 -36.17312078 86.1918441 -39 86 C-41.04563599 87.26220093 -43.04402816 88.60287726 -45 90 C-48.46539693 91.65018901 -50.05430885 92 -54 92 C-54.0928125 93.3303125 -54.0928125 93.3303125 -54.1875 94.6875 C-55.21926187 98.89391378 -56.53008917 100.4352833 -60 103 C-63.5 103.625 -63.5 103.625 -67 103 C-70.46991083 100.4352833 -71.78073813 98.89391378 -72.8125 94.6875 C-72.874375 93.800625 -72.93625 92.91375 -73 92 C-76.96 92 -80.92 92 -85 92 C-84.0409375 91.01 -84.0409375 91.01 -83.0625 90 C-81.05720033 87.08320048 -80.69543684 86.14469847 -80.37109375 82.8125 C-80.18740234 80.9253125 -80.18740234 80.9253125 -80 79 C-82.93866284 80.62290371 -85.87572403 82.2486847 -88.8125 83.875 C-89.64587891 84.33519531 -90.47925781 84.79539062 -91.33789062 85.26953125 C-92.14033203 85.71425781 -92.94277344 86.15898437 -93.76953125 86.6171875 C-94.50792236 87.02565918 -95.24631348 87.43413086 -96.00708008 87.85498047 C-97.71258662 88.83486846 -99.36339006 89.90892671 -101 91 C-101.39522121 93.00019903 -101.39522121 93.00019903 -101.375 95.25 C-101.78112525 100.39701594 -103.28511778 102.457903 -107 106 C-110.0163034 108.28823017 -113.21188621 108.47783672 -116.96875 108.38671875 C-121.26545647 107.56869194 -123.79176918 104.5926679 -126.375 101.1875 C-127.69757596 96.55848413 -127.67987371 92.52971585 -125.75 88.1875 C-123.24590391 85.05737988 -121.37701052 83.18586644 -117.30859375 82.63671875 C-116.36113281 82.65347656 -115.41367188 82.67023438 -114.4375 82.6875 C-113.01244141 82.69330078 -113.01244141 82.69330078 -111.55859375 82.69921875 C-109 83 -109 83 -106 85 C-97.72728882 84.06791127 -89.17834939 79.86463566 -82.88232422 74.53515625 C-76.95656486 66.55421136 -79.80265273 52.32457216 -81 43 C-83.39068734 41.89363605 -83.39068734 41.89363605 -86 41 C-86.99 41.495 -86.99 41.495 -88 42 C-93.11664964 42.50260166 -97.52821374 42.84102072 -102.0625 40.25 C-105.6576388 36.0750001 -106.49793568 32.68203829 -106.390625 27.25390625 C-105.72027164 23.38596738 -103.81131791 21.68055893 -101 19 C-97.29519659 16.53013106 -94.29780299 16.32567552 -90 17 C-86.24787724 19.01502889 -84.36355905 20.45466142 -82 24 C-79.78067723 24.50776044 -79.78067723 24.50776044 -77.2109375 24.51171875 C-76.26992187 24.54716797 -75.32890625 24.58261719 -74.359375 24.61914062 C-73.37453125 24.64169922 -72.3896875 24.66425781 -71.375 24.6875 C-69.88613281 24.73874023 -69.88613281 24.73874023 -68.3671875 24.79101562 C-65.91157094 24.87365657 -63.45631859 24.94275127 -61 25 C-61.03351563 24.22269531 -61.06703125 23.44539063 -61.1015625 22.64453125 C-61 20 -61 20 -59.375 17.6875 C-56.2935202 15.49802751 -54.70758991 15.38206835 -51 16 C-48.625 17.625 -48.625 17.625 -47 20 C-47.103125 20.94875 -47.20625 21.8975 -47.3125 22.875 C-47.35635762 26.07061391 -47.35635762 26.07061391 -45.1171875 27.61328125 C-43.52167258 28.64703127 -41.90301399 29.64606429 -40.26171875 30.60546875 C-38.1671491 31.89693915 -36.64924385 33.19063539 -35 35 C-31.18008091 33.43489426 -28.84183518 31.01263683 -26 28.0625 C-21.28079939 23.17783962 -21.28079939 23.17783962 -18.65625 21.515625 C-18.1096875 21.01546875 -17.563125 20.5153125 -17 20 C-16.88606407 17.44039602 -16.88606407 17.44039602 -17.5 14.6875 C-18.03615463 10.58781255 -18.16689092 9.34614412 -16.3125 5.5 C-11.25906851 0.03683082 -7.38887425 -1.25867258 0 0 Z " fill="#AAAABF" transform="translate(309,140)"/>
<path d="M0 0 C31.23076923 0 31.23076923 0 39.875 7.25 C48.05838009 16.22469751 48.68578615 26.27442496 48.17919922 37.90576172 C47.57500037 44.96682126 44.63064807 51.42565294 39.7734375 56.56640625 C28.53310163 65.65275705 13.49934 63 0 63 C0 42.21 0 21.42 0 0 Z " fill="#1C1B60" transform="translate(230,167)"/>
<path d="M0 0 C0.9746521 0.35553955 0.9746521 0.35553955 1.96899414 0.71826172 C2.6418042 0.97236816 3.31461426 1.22647461 4.0078125 1.48828125 C5.48251042 2.02758228 6.9577935 2.56528534 8.43359375 3.1015625 C9.19494629 3.3795166 9.95629883 3.6574707 10.74072266 3.94384766 C14.86930881 5.42285739 19.03186138 6.79862694 23.1953125 8.17578125 C23.98728027 8.43834717 24.77924805 8.70091309 25.59521484 8.97143555 C27.44064131 9.582546 29.28665787 10.19187411 31.1328125 10.80078125 C31.1328125 13.80078125 31.1328125 13.80078125 29.87109375 15.51953125 C28.1328125 16.80078125 28.1328125 16.80078125 24.3203125 16.30078125 C15.13084247 13.87619795 6.16239501 10.41524346 -2.48828125 6.5 C-10.31588055 4.19927705 -17.00591506 7.28664908 -24.36328125 9.95703125 C-26.14630394 10.58961853 -26.14630394 10.58961853 -27.96534729 11.23498535 C-31.10655479 12.35164107 -34.24406655 13.47766328 -37.38018799 14.60845947 C-40.58849223 15.76261871 -43.80126486 16.90419634 -47.01367188 18.046875 C-53.30233827 20.28666193 -59.58643113 22.53891468 -65.8671875 24.80078125 C-66.1638534 49.88502389 -64.93559391 71.81968442 -56.8671875 95.80078125 C-60.21815131 94.90575887 -62.98952359 93.75199228 -65.8671875 91.80078125 C-69.76052643 84.87048705 -70.97291511 76.44661257 -72.1171875 68.67578125 C-72.28702148 67.54229248 -72.45685547 66.40880371 -72.63183594 65.2409668 C-74.607468 50.49030952 -74.22952984 35.64706175 -73.8671875 20.80078125 C-63.49093632 15.99101591 -52.72832574 12.21950064 -41.98364258 8.32641602 C-39.52653816 7.43270115 -37.07209909 6.53162485 -34.62036133 5.62329102 C-31.06135993 4.30506299 -27.4948029 3.00956373 -23.92578125 1.71875 C-22.29110146 1.10642769 -22.29110146 1.10642769 -20.62339783 0.48173523 C-13.06400574 -2.21207711 -7.66863269 -2.86934488 0 0 Z " fill="#2742A4" transform="translate(261.8671875,127.19921875)"/>
<path d="M0 0 C2.51625 -0.061875 5.0325 -0.12375 7.625 -0.1875 C8.79603271 -0.22846802 8.79603271 -0.22846802 9.99072266 -0.27026367 C16.23437702 -0.34397018 20.15464055 1.3552231 24.875 5.5625 C27.55938214 9.03487819 27.59296997 12.3265406 27.35546875 16.6015625 C26.65331223 21.33919002 24.97975704 24.09372474 21.5 27.3125 C17.03578319 30.32584635 12.99617222 30.12090612 7.8125 30.0625 C5.234375 30.041875 2.65625 30.02125 0 30 C0 20.1 0 10.2 0 0 Z " fill="#101020" transform="translate(186,279)"/>
<path d="M0 0 C2.97 0 5.94 0 9 0 C10.17094005 2.7899439 11.33690927 5.58178597 12.5 8.375 C12.83386719 9.1690625 13.16773438 9.963125 13.51171875 10.78125 C13.82753906 11.54179687 14.14335937 12.30234375 14.46875 13.0859375 C14.76201172 13.7876709 15.05527344 14.4894043 15.35742188 15.21240234 C16 17 16 17 16 19 C16.66 19 17.32 19 18 19 C18.17015625 18.38253906 18.3403125 17.76507813 18.515625 17.12890625 C20.2272637 11.14727527 22.36402412 5.63553464 25 0 C27.97 0 30.94 0 34 0 C34 9.9 34 19.8 34 30 C31.69 30 29.38 30 27 30 C26.67 25.05 26.34 20.1 26 15 C24.02 19.95 22.04 24.9 20 30 C18.02 30 16.04 30 14 30 C12.02 25.05 10.04 20.1 8 15 C7.67 19.95 7.34 24.9 7 30 C4.69 30 2.38 30 0 30 C0 20.1 0 10.2 0 0 Z " fill="#22217A" transform="translate(244,279)"/>
<path d="M0 0 C3.88690598 1.99898022 6.39363397 4.9540594 8 9 C8.23974502 13.46724889 7.53895094 17.09533235 5.25 20.9375 C1.71474659 24.17814896 -0.78395611 24.93599769 -5.5625 25.1875 C-9 25 -9 25 -11.02587891 24.32543945 C-11.67733887 24.21804443 -12.32879883 24.11064941 -13 24 C-15.31954696 25.99888607 -17.31849361 27.9438231 -19.375 30.1875 C-23.3314728 34.42591771 -27.0309388 37.9750277 -32 41 C-32.66 39.35 -33.32 37.7 -34 36 C-31.91975578 33.89270058 -29.83597761 31.78911127 -27.75 29.6875 C-26.87021484 28.79514648 -26.87021484 28.79514648 -25.97265625 27.88476562 C-21.32252874 23.2085138 -21.32252874 23.2085138 -18.546875 21.4140625 C-18.03640625 20.94742188 -17.5259375 20.48078125 -17 20 C-16.88606407 17.44039602 -16.88606407 17.44039602 -17.5 14.6875 C-18.03615463 10.58781255 -18.16689092 9.34614412 -16.3125 5.5 C-11.25906851 0.03683082 -7.38887425 -1.25867258 0 0 Z " fill="#1D4AEA" transform="translate(309,140)"/>
<path d="M0 0 C0.234375 2.3203125 0.234375 2.3203125 0 5 C-1.546875 6.5546875 -1.546875 6.5546875 -3.75 7.875 C-4.55953125 8.38160156 -5.3690625 8.88820312 -6.203125 9.41015625 C-8.18316078 10.53567938 -10.19823534 11.60056481 -12.234375 12.62109375 C-18.16099565 15.29456291 -18.16099565 15.29456291 -21.80859375 20.234375 C-21.96787928 22.55503134 -21.96787928 22.55503134 -21.8828125 24.8515625 C-22.09370111 28.71785377 -24.27230806 30.39917746 -27 33 C-30.0163034 35.28823017 -33.21188621 35.47783672 -36.96875 35.38671875 C-41.26545647 34.56869194 -43.79176918 31.5926679 -46.375 28.1875 C-47.69757596 23.55848413 -47.67987371 19.52971585 -45.75 15.1875 C-43.24590391 12.05737988 -41.37701052 10.18586644 -37.30859375 9.63671875 C-35.88740234 9.66185547 -35.88740234 9.66185547 -34.4375 9.6875 C-33.01244141 9.69330078 -33.01244141 9.69330078 -31.55859375 9.69921875 C-29 10 -29 10 -26 12 C-22.27396896 11.66099443 -19.60240257 10.40774572 -16.42578125 8.49609375 C-15.59369141 8.00302734 -14.76160156 7.50996094 -13.90429688 7.00195312 C-13.04900391 6.48568359 -12.19371094 5.96941406 -11.3125 5.4375 C-9.60255392 4.41153235 -7.89041878 3.38920148 -6.17578125 2.37109375 C-5.42208252 1.91661865 -4.66838379 1.46214355 -3.8918457 0.99389648 C-2 0 -2 0 0 0 Z " fill="#262E49" transform="translate(229,213)"/>
<path d="M0 0 C10.61290323 0 10.61290323 0 14 3 C18.86468443 8.65355218 18.68885507 15.02225006 18.3828125 22.16796875 C17.7321185 28.68154848 16.0456295 32.14033682 11.25 36.5 C8 38 8 38 0 38 C0 25.46 0 12.92 0 0 Z " fill="#1F3998" transform="translate(246,180)"/>
<path d="M0 0 C3.05490375 2.959438 5.8675901 6.01032705 8.625 9.25 C13.26640367 14.4888978 18.44721638 18.75956423 24 23 C24.58185059 23.44617676 25.16370117 23.89235352 25.76318359 24.35205078 C27.60147032 25.75086371 29.45365534 27.12865251 31.3125 28.5 C32.17415771 29.15053345 32.17415771 29.15053345 33.05322266 29.81420898 C36.67511986 32.43014024 39.48557189 34.0870391 44 34 C46.69556449 32.62701171 48.88775643 31.30944503 51.3125 29.5625 C51.96968018 29.10963623 52.62686035 28.65677246 53.30395508 28.19018555 C57.95537137 24.92544163 62.17614063 21.35559679 66.16796875 17.30078125 C68 16 68 16 70.11328125 16.10546875 C72 17 72 17 74 20 C69.23514927 25.0791723 64.23134389 29.24527866 58.5 33.1875 C57.77941406 33.69474609 57.05882812 34.20199219 56.31640625 34.72460938 C54.22939349 36.17947993 52.11992479 37.59366793 50 39 C49.37996094 39.43650879 48.75992188 39.87301758 48.12109375 40.32275391 C45.18701865 42.24683008 43.55528672 43.08267114 40.03515625 42.55859375 C36.29649591 40.63874114 32.8735147 38.47736977 29.4375 36.0625 C28.74003662 35.57595947 28.04257324 35.08941895 27.32397461 34.58813477 C20.5263363 29.77646251 14.13547847 24.62895428 8 19 C6.59427734 17.71416016 6.59427734 17.71416016 5.16015625 16.40234375 C-0.82235695 10.43826665 -0.82235695 10.43826665 -1.32421875 6.375 C-1.08883371 4.12654584 -0.70900749 2.14254819 0 0 Z " fill="#28345D" transform="translate(211,234)"/>
<path d="M0 0 C3.93622829 2.04100726 6.48209259 3.74985925 8 8 C7.01 8.33 6.02 8.66 5 9 C5.66 9.350625 6.32 9.70125 7 10.0625 C9 12 9 12 9.1875 15.625 C9.0946875 17.295625 9.0946875 17.295625 9 19 C9.33 19.33 9.66 19.66 10 20 C10.04092937 22.33297433 10.04241723 24.66705225 10 27 C9.05125 26.484375 8.1025 25.96875 7.125 25.4375 C6.09375 24.963125 5.0625 24.48875 4 24 C3.34 24.33 2.68 24.66 2 25 C-3.11664964 25.50260166 -7.52821374 25.84102072 -12.0625 23.25 C-15.6576388 19.0750001 -16.49793568 15.68203829 -16.390625 10.25390625 C-15.72027164 6.38596738 -13.81131791 4.68055893 -11 2 C-7.29137017 -0.47241989 -4.30094385 -0.66668695 0 0 Z " fill="#21398F" transform="translate(219,157)"/>
<path d="M0 0 C0.33 0 0.66 0 1 0 C1.66756238 25.37764047 -0.73012204 49.73154891 -14 72 C-15.65 71.01 -17.3 70.02 -19 69 C-18.36400308 64.86218869 -16.95744223 61.53185125 -15.1875 57.75 C-11.60038839 49.77048479 -9.70869224 41.55222374 -8 33 C-7.81179688 32.07960937 -7.62359375 31.15921875 -7.4296875 30.2109375 C-6.78108274 25.36409104 -6.62968701 20.5084403 -6.4375 15.625 C-6.39431641 14.60277344 -6.35113281 13.58054688 -6.30664062 12.52734375 C-6.20112208 10.01834712 -6.09900787 7.50926057 -6 5 C-5.38125 4.731875 -4.7625 4.46375 -4.125 4.1875 C-1.7004767 3.04443152 -1.7004767 3.04443152 0 0 Z " fill="#254ACF" transform="translate(317,161)"/>
<path d="M0 0 C3.12578143 1.6720747 5.39281175 3.7856235 7 7 C7 9.31 7 11.62 7 14 C1.72 14 -3.56 14 -9 14 C-8.67 14.99 -8.34 15.98 -8 17 C-6.33388095 17.042721 -4.66617115 17.04063832 -3 17 C-2.67 16.67 -2.34 16.34 -2 16 C0.67058851 15.85884839 3.32432238 15.95752893 6 16 C5.69461464 18.85026332 4.95551924 20.05165508 3.0625 22.25 C-1.29504152 24.74002373 -5.09216076 24.93295985 -10 24 C-13.11709136 22.30375149 -15.38929088 20.22141825 -17 17 C-17.51512617 12.90842645 -17.94367269 8.76410454 -15.953125 5.04296875 C-11.37288125 -0.49373767 -6.8728078 -0.96829758 0 0 Z " fill="#1D1C4D" transform="translate(233,285)"/>
<path d="M0 0 C3.45593085 1.44950742 5.27109192 3.29825847 7.6875 6.125 C10.506235 9.1499866 10.506235 9.1499866 14.30859375 10.34765625 C15.83523835 10.24210409 17.36043399 10.11242975 18.8828125 9.95703125 C21.51753593 10.0105035 22.49838759 10.70379729 24.5 12.375 C27.16670435 15.17503957 27.88559005 15.99319243 28.3125 19.75 C27.92005677 23.83140958 26.56651766 25.84684973 24 29 C20.26662527 30.24445824 16.87209655 30.64032725 13 30 C10 28.0625 10 28.0625 8 25 C7.43549448 21.19286977 7.25534552 17.48930896 9 14 C8.34 14 7.68 14 7 14 C5.34375 12.390625 5.34375 12.390625 3.5 10.25 C2.8915625 9.55390625 2.283125 8.8578125 1.65625 8.140625 C0.12023037 6.15539208 -0.9723966 4.28127955 -2 2 C-1.34 1.34 -0.68 0.68 0 0 Z " fill="#223C96" transform="translate(274,221)"/>
<path d="M0 0 C6.27 0 12.54 0 19 0 C19 1.98 19 3.96 19 6 C15.04 6 11.08 6 7 6 C7 7.98 7 9.96 7 12 C10.3 12 13.6 12 17 12 C17 13.65 17 15.3 17 17 C13.7 17 10.4 17 7 17 C7 19.31 7 21.62 7 24 C10.63 24 14.26 24 18 24 C18 25.98 18 27.96 18 30 C12.06 30 6.12 30 0 30 C0 20.1 0 10.2 0 0 Z " fill="#3432BA" transform="translate(296,279)"/>
<path d="M0 0 C0.99 0 1.98 0 3 0 C3.02314716 7.39732867 3.04092723 14.79464955 3.05181217 22.19200706 C3.05703579 25.62671562 3.06412401 29.06139943 3.07543945 32.49609375 C3.08836035 36.44270535 3.09323252 40.38930684 3.09765625 44.3359375 C3.10281754 45.57242035 3.10797882 46.8089032 3.11329651 48.08285522 C3.11337204 49.22388702 3.11344757 50.36491882 3.11352539 51.54052734 C3.115746 52.548685 3.11796661 53.55684265 3.12025452 54.59555054 C3 57 3 57 2 59 C17.345 58.505 17.345 58.505 33 58 C33 58.66 33 59.32 33 60 C30.03 60.495 30.03 60.495 27 61 C26.9071875 62.3303125 26.9071875 62.3303125 26.8125 63.6875 C25.78073813 67.89391378 24.46991083 69.4352833 21 72 C17.5 72.625 17.5 72.625 14 72 C10.53008917 69.4352833 9.21926187 67.89391378 8.1875 63.6875 C8.125625 62.800625 8.06375 61.91375 8 61 C4.04 61 0.08 61 -4 61 C-3.34878174 60.40775635 -2.69756348 59.8155127 -2.02661133 59.20532227 C0.96990655 54.46597963 0.51695447 50.21048878 0.42578125 44.71484375 C0.42249313 43.62160294 0.41920502 42.52836212 0.41581726 41.4019928 C0.40540831 39.09467603 0.3854787 36.78738524 0.35668945 34.48022461 C0.31261796 30.94695663 0.29525113 27.41436823 0.28320312 23.88085938 C0.26977841 21.63801103 0.25485527 19.39517104 0.23828125 17.15234375 C0.23089432 16.0949852 0.22350739 15.03762665 0.21589661 13.94822693 C0.19664375 12.47133141 0.19664375 12.47133141 0.17700195 10.96459961 C0.16715775 10.10031845 0.15731354 9.23603729 0.14717102 8.3455658 C0.0758587 6.00305242 0.0758587 6.00305242 -0.57356262 3.81471252 C-1 2 -1 2 0 0 Z " fill="#B7B8BC" transform="translate(228,171)"/>
<path d="M0 0 C10.61290323 0 10.61290323 0 14 3 C18.86468443 8.65355218 18.68885507 15.02225006 18.3828125 22.16796875 C17.7321185 28.68154848 16.0456295 32.14033682 11.25 36.5 C8 38 8 38 0 38 C0 25.46 0 12.92 0 0 Z M3 3 C3 13.56 3 24.12 3 35 C8.77291667 35.6 8.77291667 35.6 11.75 32.9375 C15.98285618 27.41127109 16.49199795 21.51360124 16.3984375 14.73046875 C15.72038598 10.08382156 13.30192754 6.30192754 10 3 C7.69 3 5.38 3 3 3 Z " fill="#A3A6B4" transform="translate(246,180)"/>
<path d="M0 0 C2.64 0 5.28 0 8 0 C8 9.9 8 19.8 8 30 C5.36 30 2.72 30 0 30 C0 20.1 0 10.2 0 0 Z " fill="#3A39A7" transform="translate(283,279)"/>
<path d="M0 0 C2.5625 2.0625 2.5625 2.0625 4 5 C3.93977486 8.49305789 3.63658168 10.90366489 1.875 13.9375 C-1.23418565 15.69937187 -3.50844577 15.48159369 -7 15 C-10 12.9375 -10 12.9375 -12 10 C-12 6.48044581 -11.63108355 4.15079941 -9.9375 1.0625 C-6.72094003 -0.70141999 -3.50614591 -0.73924763 0 0 Z " fill="#2245C1" transform="translate(299,190)"/>
<path d="M0 0 C7.05263158 0 7.05263158 0 10 2 C12.4915904 5.7373856 12.45793285 7.57331583 12 12 C10.5 14.9375 10.5 14.9375 8 17 C5.36 17 2.72 17 0 17 C0 11.39 0 5.78 0 0 Z " fill="#F8F8F8" transform="translate(194,285)"/>
<path d="M0 0 C5.61 0 11.22 0 17 0 C17 6 17 6 14.9375 8.875 C12 11 12 11 8.5 11.625 C4.0702358 10.83397068 2.60789828 9.63525215 0 6 C0 4.02 0 2.04 0 0 Z " fill="#2C3C74" transform="translate(237,232)"/>
<path d="M0 0 C2.375 1.625 2.375 1.625 4 4 C4.5625 7 4.5625 7 4 10 C1.875 12.4375 1.875 12.4375 -1 14 C-4.56090901 14 -6.25697245 13.69349238 -8.875 11.25 C-10.24863504 8.50272993 -10.53062116 7.03212094 -10 4 C-7.16979976 -0.02759265 -4.82432618 -0.80405436 0 0 Z " fill="#2A3B77" transform="translate(215,192)"/>
<path d="M0 0 C2.375 1.625 2.375 1.625 4 4 C4 5.98 4 7.96 4 10 C-0.29 9.67 -4.58 9.34 -9 9 C-9 3 -9 3 -7.875 1.125 C-5.07553259 -0.55468045 -3.20195936 -0.45742277 0 0 Z " fill="#2244BD" transform="translate(258,156)"/>
<path d="M0 0 C0.99 0 1.98 0 3 0 C3 12.87 3 25.74 3 39 C2.01 39.495 2.01 39.495 1 40 C0.97494385 38.99098633 0.9498877 37.98197266 0.92407227 36.94238281 C0.82977591 33.19258304 0.72960979 29.44295892 0.62768555 25.69335938 C0.58442069 24.07165643 0.54273972 22.44991042 0.50268555 20.828125 C0.44477786 18.49465973 0.38114302 16.16140957 0.31640625 13.828125 C0.29969376 13.10506165 0.28298126 12.38199829 0.26576233 11.63702393 C0.16705877 8.26988941 -0.16921213 5.2532313 -1 2 C-0.67 1.34 -0.34 0.68 0 0 Z " fill="#C3C4C6" transform="translate(228,171)"/>
<path d="M0 0 C0.33 0 0.66 0 1 0 C1 1.65 1 3.3 1 5 C3.64 5.33 6.28 5.66 9 6 C9 6.33 9 6.66 9 7 C0.09 7 -8.82 7 -18 7 C-17.67 8.32 -17.34 9.64 -17 11 C-17.99 11 -18.98 11 -20 11 C-21.65 9.02 -23.3 7.04 -25 5 C-16.75 5 -8.5 5 0 5 C0 3.35 0 1.7 0 0 Z " fill="#B6B8BE" transform="translate(248,160)"/>
<path d="M0 0 C2.63534505 2.63534505 2.32850126 3.95159993 2.375 7.625 C2.26053684 14.43555798 0.66259556 18.97014988 -3.8125 24.0625 C-7.05922088 25.4539518 -9.61996261 24.71500791 -13 24 C-13 23.67 -13 23.34 -13 23 C-11.01432292 22.67447917 -9.02864583 22.34895833 -7.04296875 22.0234375 C-3.84216819 20.41997718 -3.26519477 18.28348166 -2 15 C-1.49720516 12.33814497 -1.09553389 9.80473374 -0.8125 7.125 C-0.73064453 6.43664062 -0.64878906 5.74828125 -0.56445312 5.0390625 C-0.36629262 3.36052643 -0.18172213 1.68039519 0 0 Z " fill="#B1B2BA" transform="translate(262,192)"/>
<path d="M0 0 C1.98 0 3.96 0 6 0 C6.33 1.32 6.66 2.64 7 4 C4.03 4 1.06 4 -2 4 C-1.34 2.68 -0.68 1.36 0 0 Z " fill="#DDDDE4" transform="translate(225,291)"/>
<path d="M0 0 C0.66 0.33 1.32 0.66 2 1 C0.3125 3.0625 0.3125 3.0625 -2 5 C-4.75 4.75 -4.75 4.75 -7 4 C-4.66603411 2.44402274 -2.57343171 1.07918104 0 0 Z " fill="#A9A9B8" transform="translate(266,225)"/>
<path d="M0 0 C0 3 0 3 -2.5 5.6875 C-3.325 6.450625 -4.15 7.21375 -5 8 C-5 5 -5 5 -2.5 2.3125 C-1.675 1.549375 -0.85 0.78625 0 0 Z " fill="#BFBFC2" transform="translate(273,220)"/>
</svg>
